<svg width="31" height="25" viewBox="0 0 31 25" fill="none" xmlns="http://www.w3.org/2000/svg">
<path d="M27.4618 3.02246H10.2877C10.2877 3.02246 10.2877 4.75546 10.2877 5.02041H27.4618C28.0501 5.02041 28.494 5.64976 28.494 6.39899V18.8162L25.0052 14.8203C24.7539 14.5261 24.4385 14.2894 24.0816 14.127C23.7247 13.9647 23.3351 13.8808 22.9408 13.8813C22.5472 13.8796 22.1581 13.9619 21.8013 14.1225C21.4444 14.2831 21.1286 14.518 20.8764 14.8104L17.2121 19.076L13.4962 14.8403C13.243 14.549 12.927 14.3149 12.5703 14.1544C12.2137 13.9939 11.8251 13.9109 11.4318 13.9113C11.0368 13.9133 10.6472 13.9994 10.2904 14.1634C9.93368 14.3274 9.61855 14.5653 9.36737 14.8603L5.70307 19.1859V9.64399H3.63869L3.63867 21.6733C3.63867 21.8132 3.63867 21.953 3.63867 22.1129C3.66729 22.3059 3.71216 22.4963 3.77286 22.6823C3.77286 22.7322 3.77286 22.7922 3.77286 22.8421L3.82447 22.962C3.89548 23.1418 3.98179 23.3155 4.08252 23.4814L4.20638 23.6713C4.29958 23.8052 4.40309 23.9321 4.51604 24.0509L4.67087 24.2007C4.8339 24.3499 5.01398 24.4806 5.20761 24.5903H5.23858C5.68766 24.8605 6.20647 25.0025 6.73526 24.9999H27.3792C27.83 24.9954 28.2739 24.8925 28.6779 24.6988C29.0818 24.505 29.4353 24.2255 29.712 23.881C29.9899 23.5479 30.2032 23.1689 30.3416 22.7622C30.4247 22.4888 30.4766 22.2074 30.4964 21.923C30.4964 21.8232 30.4964 21.7233 30.4964 21.6134V6.39899C30.5399 5.56564 30.248 4.74841 29.6822 4.11884C29.1164 3.48927 28.3206 3.09632 27.4618 3.02246Z" fill="#8E8EA9"/>
<path d="M16.1894 11.5923C17.3295 11.5923 18.2538 10.6978 18.2538 9.59438C18.2538 8.49095 17.3295 7.59644 16.1894 7.59644C15.0493 7.59644 14.125 8.49095 14.125 9.59438C14.125 10.6978 15.0493 11.5923 16.1894 11.5923Z" fill="#8E8EA9"/>
<path d="M4.62916 8.07504H5.66099V5.03649H8.75754C8.75754 5.03649 8.75758 4.30246 8.75758 4.03752C8.75758 3.77258 8.75754 3.03855 8.75754 3.03855H5.66099V0C5.66099 0 4.90292 0 4.62916 0C4.35541 0 3.56628 0.00300487 3.59659 0V3.03855H0.500032C0.500032 3.03855 0.5 3.77258 0.5 4.03752C0.5 4.30246 0.500085 5.03649 0.500085 5.03649H3.59659V8.07504C3.59659 8.07504 4.35541 8.07504 4.62916 8.07504Z" fill="#8E8EA9"/>
</svg>
