<svg width="16" height="14" viewBox="0 0 16 14" fill="none" xmlns="http://www.w3.org/2000/svg">
<path d="M11.7499 7.85H11.75C12.3236 7.85 12.8843 8.02008 13.3612 8.33874C13.8381 8.65739 14.2098 9.11031 14.4293 9.64022C14.6487 10.1701 14.7062 10.7532 14.5943 11.3158C14.4824 11.8783 14.2062 12.395 13.8006 12.8006C13.395 13.2062 12.8783 13.4824 12.3158 13.5943C11.7532 13.7062 11.1701 13.6487 10.6402 13.4293C10.1103 13.2098 9.65739 12.8381 9.33874 12.3612C9.02008 11.8843 8.85 11.3236 8.85 10.75V10.65H8.75H7.25H7.15004L7.15 10.75C7.14973 11.4535 6.89368 12.133 6.42958 12.6618C5.96547 13.1906 5.32495 13.5326 4.62736 13.6242C3.92978 13.7157 3.22269 13.5506 2.63785 13.1594C2.05302 12.7683 1.63031 12.1779 1.4485 11.4982C1.26669 10.8186 1.33817 10.096 1.64962 9.46509C1.96107 8.8342 2.49125 8.33806 3.14138 8.0691C3.79151 7.80014 4.51725 7.7767 5.18339 8.00315C5.84952 8.2296 6.41061 8.69049 6.76213 9.29996L6.79099 9.35H6.84875H9.15125H9.209L9.23787 9.29998C9.49233 8.85893 9.85849 8.49271 10.2995 8.23816C10.7405 7.98362 11.2408 7.84974 11.7499 7.85ZM13.9 5.5V5.6H14H15.4V6.9H0.6V5.6H2H2.1V5.5V3.25C2.1 2.48087 2.40553 1.74325 2.94939 1.19939C3.49325 0.655535 4.23087 0.35 5 0.35H11C11.7691 0.35 12.5068 0.655535 13.0506 1.19939C13.5945 1.74325 13.9 2.48087 13.9 3.25V5.5ZM3.4 5.5V5.6H3.5H12.5H12.6V5.5V3.25C12.6 2.40414 11.8426 1.65 11 1.65H5C4.15414 1.65 3.4 2.4074 3.4 3.25V5.5ZM4.25 9.15C3.82565 9.15 3.41869 9.31857 3.11863 9.61863C2.81857 9.91869 2.65 10.3257 2.65 10.75C2.65 11.1743 2.81857 11.5813 3.11863 11.8814C3.41869 12.1814 3.82565 12.35 4.25 12.35C4.67435 12.35 5.08131 12.1814 5.38137 11.8814C5.68143 11.5813 5.85 11.1743 5.85 10.75C5.85 10.3257 5.68143 9.91869 5.38137 9.61863C5.08131 9.31857 4.67435 9.15 4.25 9.15ZM11.75 9.15C11.3257 9.15 10.9187 9.31857 10.6186 9.61863C10.3186 9.91869 10.15 10.3257 10.15 10.75C10.15 11.1743 10.3186 11.5813 10.6186 11.8814C10.9187 12.1814 11.3257 12.35 11.75 12.35C12.1743 12.35 12.5813 12.1814 12.8814 11.8814C13.1814 11.5813 13.35 11.1743 13.35 10.75C13.35 10.3257 13.1814 9.91869 12.8814 9.61863C12.5813 9.31857 12.1743 9.15 11.75 9.15Z" fill="black" stroke="white" stroke-width="0.2"/>
</svg>
