<svg width="24" height="24" viewBox="0 0 24 24" fill="none" xmlns="http://www.w3.org/2000/svg">
<g clip-path="url(#clip0_267_1883)">
<path d="M21 18.15H21.85V19.85H2.15V18.15H3H3.15V18V11.031C3.15 6.12537 7.11332 2.15 12 2.15C16.8867 2.15 20.85 6.12537 20.85 11.031V18V18.15H21ZM4.85 18V18.15H5H19H19.15V18V11.031C19.15 7.06578 15.9495 3.85 12 3.85C8.05053 3.85 4.85 7.06578 4.85 11.031V18ZM14.3452 21.15C14.3089 21.7185 14.0669 22.2565 13.6617 22.6617C13.221 23.1024 12.6233 23.35 12 23.35C11.3767 23.35 10.779 23.1024 10.3383 22.6617C9.93308 22.2565 9.69113 21.7185 9.65479 21.15H14.3452Z" fill="#020202" stroke="white" stroke-width="0.3"/>
</g>
<defs>
<clipPath id="clip0_267_1883">
<rect width="24" height="24" fill="white"/>
</clipPath>
</defs>
</svg>
