<svg width="30" height="25" viewBox="0 0 30 25" fill="none" xmlns="http://www.w3.org/2000/svg">
<path d="M26.9598 3.02258H9.78578C9.78578 3.02258 9.78578 4.75559 9.78578 5.02053H26.9598C27.5482 5.02053 27.992 5.64988 27.992 6.39911V18.8164L24.5032 14.8205C24.252 14.5263 23.9366 14.2895 23.5797 14.1272C23.2228 13.9648 22.8332 13.8809 22.4388 13.8814C22.0453 13.8797 21.6562 13.962 21.2993 14.1226C20.9425 14.2832 20.6266 14.5181 20.3744 14.8105L16.7101 19.0761L12.9942 14.8404C12.741 14.5491 12.425 14.315 12.0684 14.1545C11.7117 13.994 11.3231 13.911 10.9298 13.9114C10.5349 13.9135 10.1452 13.9995 9.78848 14.1635C9.43173 14.3275 9.1166 14.5655 8.86541 14.8604L5.20111 19.186V9.64411H3.13674L3.13672 21.6734C3.13672 21.8133 3.13672 21.9531 3.13672 22.113C3.16533 22.306 3.21021 22.4964 3.2709 22.6824C3.2709 22.7323 3.2709 22.7923 3.2709 22.8422L3.32251 22.9621C3.39353 23.1419 3.47984 23.3156 3.58056 23.4816L3.70443 23.6714C3.79763 23.8053 3.90114 23.9322 4.01409 24.051L4.16892 24.2008C4.33195 24.35 4.51203 24.4807 4.70566 24.5904H4.73662C5.18571 24.8606 5.70452 25.0026 6.23331 25H26.8773C27.328 24.9956 27.772 24.8926 28.1759 24.6989C28.5798 24.5052 28.9333 24.2256 29.21 23.8812C29.488 23.5481 29.7013 23.169 29.8397 22.7623C29.9227 22.4889 29.9747 22.2075 29.9945 21.9232C29.9945 21.8233 29.9945 21.7234 29.9945 21.6135V6.39911C30.0379 5.56576 29.7461 4.74853 29.1803 4.11896C28.6144 3.48939 27.8186 3.09644 26.9598 3.02258Z" fill="#8E8EA9"/>
<path d="M15.6894 11.5926C16.8295 11.5926 17.7538 10.6981 17.7538 9.59469C17.7538 8.49125 16.8295 7.59674 15.6894 7.59674C14.5493 7.59674 13.625 8.49125 13.625 9.59469C13.625 10.6981 14.5493 11.5926 15.6894 11.5926Z" fill="#8E8EA9"/>
<path d="M4.12916 8.07504H5.16099V5.03649H8.25754C8.25754 5.03649 8.25758 4.30246 8.25758 4.03752C8.25758 3.77258 8.25754 3.03855 8.25754 3.03855H5.16099V0C5.16099 0 4.40292 0 4.12916 0C3.85541 0 3.06628 0.00300487 3.09659 0V3.03855H3.24835e-05C3.24835e-05 3.03855 0 3.77258 0 4.03752C0 4.30246 8.49847e-05 5.03649 8.49847e-05 5.03649H3.09659V8.07504C3.09659 8.07504 3.85541 8.07504 4.12916 8.07504Z" fill="#8E8EA9"/>
</svg>
