<svg width="16" height="16" viewBox="0 0 16 16" fill="none" xmlns="http://www.w3.org/2000/svg">
<path d="M11.6 2.25V2.4H11.75H14.75C14.9091 2.4 15.0617 2.46321 15.1743 2.57574C15.2868 2.68826 15.35 2.84087 15.35 3V15C15.35 15.1591 15.2868 15.3117 15.1743 15.4243C15.0617 15.5368 14.9091 15.6 14.75 15.6H1.25C1.09087 15.6 0.938257 15.5368 0.825736 15.4243C0.713214 15.3117 0.65 15.1591 0.65 15V3C0.65 2.84087 0.713214 2.68826 0.825736 2.57574C0.938258 2.46321 1.09087 2.4 1.25 2.4H4.25H4.4V2.25V0.9H5.6V2.25V2.4H5.75H10.25H10.4V2.25V0.9H11.6V2.25ZM10.4 3.75V3.6H10.25H5.75H5.6V3.75V5.1H4.4V3.75V3.6H4.25H2H1.85V3.75V6.75V6.9H2H14H14.15V6.75V3.75V3.6H14H11.75H11.6V3.75V5.1H10.4V3.75ZM14.15 8.25V8.1H14H2H1.85V8.25V14.25V14.4H2H14H14.15V14.25V8.25Z" fill="#87898E" stroke="white" stroke-width="0.3"/>
</svg>
