<svg width="18" height="18" viewBox="0 0 18 18" fill="none" xmlns="http://www.w3.org/2000/svg">
<g clip-path="url(#clip0_322_2860)">
<path d="M12.65 4.5V4.6H12.75H16.4V5.9H15H14.9V6V15.75C14.9 15.9224 14.8315 16.0877 14.7096 16.2096C14.5877 16.3315 14.4224 16.4 14.25 16.4H3.75C3.57761 16.4 3.41228 16.3315 3.29038 16.2096C3.16848 16.0877 3.1 15.9224 3.1 15.75V6V5.9H3H1.6V4.6H5.25H5.35V4.5V2.25C5.35 2.07761 5.41848 1.91228 5.54038 1.79038C5.66228 1.66848 5.82761 1.6 6 1.6H12C12.1724 1.6 12.3377 1.66848 12.4596 1.79038C12.5815 1.91228 12.65 2.07761 12.65 2.25V4.5ZM13.6 6V5.9H13.5H4.5H4.4V6V15V15.1H4.5H13.5H13.6V15V6ZM6.75 2.9H6.65V3V4.5V4.6H6.75H11.25H11.35V4.5V3V2.9H11.25H6.75Z" fill="black" stroke="white" stroke-width="0.2"/>
</g>
<defs>
<clipPath id="clip0_322_2860">
<rect width="18" height="18" fill="white"/>
</clipPath>
</defs>
</svg>
