<svg width="18" height="16" viewBox="0 0 18 16" fill="none" xmlns="http://www.w3.org/2000/svg">
<path d="M12.85 8.11613L12.8008 8.14514C12.5404 8.29863 12.3111 8.50654 12.1319 8.76019L8.59945 13.7642L8.54992 13.8343L8.47308 13.796L7.97733 13.5485L7.97731 13.5485C7.88024 13.5 7.80269 13.4197 7.75758 13.321C7.71247 13.2223 7.70251 13.1111 7.72936 13.006M12.85 8.11613L7.82625 13.0308M12.85 8.11613V8.059V1.75V1.65H12.75H4.38H4.31304L4.28754 1.71192L2.15754 6.88392L2.15 6.90221V6.922V8.5V8.6H2.25H7.05C7.26321 8.60003 7.4736 8.64876 7.66513 8.74248C7.85665 8.8362 8.02423 8.97242 8.15509 9.14076C8.28596 9.3091 8.37664 9.50511 8.42023 9.71382C8.46381 9.92254 8.45915 10.1384 8.40659 10.3451M12.85 8.11613L8.40659 10.3451M7.72936 13.006L7.82625 13.0308M7.72936 13.006L7.72934 13.0061L7.82625 13.0308M7.72936 13.006L8.40659 10.3451L8.5035 10.3698M7.82625 13.0308L8.5035 10.3698M8.5035 10.3698L8.40659 10.3451M8.5035 10.3698L8.40659 10.3451M7.14691 10.0247L7.17865 9.9H7.05H2.25C1.8787 9.9 1.5226 9.7525 1.26005 9.48995C0.9975 9.2274 0.850001 8.8713 0.850001 8.5L0.850001 6.922L0.850001 6.9219C0.849812 6.73896 0.885477 6.55777 0.954979 6.38855C0.954986 6.38853 0.954994 6.38851 0.955001 6.3885L3.27696 0.753096L3.277 0.753C3.32593 0.633889 3.40914 0.531997 3.51607 0.460248C3.623 0.388499 3.74883 0.350127 3.8776 0.35L16.5 0.35C16.6724 0.35 16.8377 0.418482 16.9596 0.540381C17.0815 0.662279 17.15 0.827609 17.15 1V8.5C17.15 8.67239 17.0815 8.83772 16.9596 8.95962C16.8377 9.08152 16.6724 9.15 16.5 9.15H13.8885C13.8885 9.15 13.8885 9.15 13.8885 9.15C13.7524 9.14997 13.6183 9.18261 13.4975 9.24517C13.3767 9.30774 13.2726 9.39841 13.1941 9.50955L13.1941 9.50959L9.1043 15.3041L9.1043 15.3041C9.06638 15.3578 9.01047 15.3962 8.9467 15.4122C8.88293 15.4283 8.81552 15.4209 8.75669 15.3915L7.39626 14.7106L7.39621 14.7106C7.03375 14.5294 6.74419 14.2297 6.57564 13.8612C6.40709 13.4927 6.36969 13.0776 6.46966 12.6849L7.14691 10.0247ZM14.15 7.75V7.85H14.25H15.75H15.85V7.75V1.75V1.65H15.75H14.25H14.15V1.75V7.75Z" fill="black" stroke="white" stroke-width="0.2"/>
</svg>
