<svg width="14" height="14" viewBox="0 0 14 14" fill="none" xmlns="http://www.w3.org/2000/svg">
<path d="M3.39083 13.6499L13.4378 3.60299C13.4378 3.60299 13.4378 3.60298 13.4378 3.60298C13.5596 3.48109 13.6281 3.31579 13.6281 3.14344C13.6281 2.97109 13.5596 2.80579 13.4378 2.6839L13.4378 2.68389M3.39083 13.6499L13.5085 2.61319L13.4378 2.68389M3.39083 13.6499H0.35M3.39083 13.6499H0.35M13.4378 2.68389L11.3161 0.562162M13.4378 2.68389L11.3161 0.562162M11.3161 0.562162C11.316 0.562158 11.316 0.562155 11.316 0.562151C11.1941 0.440302 11.0289 0.371851 10.8565 0.371851C10.6841 0.371851 10.5189 0.440302 10.397 0.562151C10.397 0.562155 10.397 0.562158 10.397 0.562162L0.35 10.6091V13.6499M11.3161 0.562162L0.35 13.6499M9.86671 5.33515L9.93742 5.26444L9.86671 5.19373L8.80621 4.13323L8.7355 4.06252L8.66479 4.13323L1.67929 11.1187L1.65 11.148V11.1894V12.2499V12.3499H1.75H2.8105H2.85192L2.88121 12.3207L9.86671 5.33515ZM10.7858 4.27465L10.8565 4.34536L10.9272 4.27465L11.9877 3.21415L12.0584 3.14344L11.9877 3.07273L10.9272 2.01223L10.8565 1.94152L10.7858 2.01223L9.72529 3.07273L9.65458 3.14344L9.72529 3.21415L10.7858 4.27465Z" fill="black" stroke="white" stroke-width="0.2"/>
</svg>
