<svg width="14" height="14" viewBox="0 0 14 14" fill="none" xmlns="http://www.w3.org/2000/svg">
<path d="M3.39083 13.6501L13.4378 3.60311C13.4378 3.60311 13.4378 3.60311 13.4378 3.6031C13.5596 3.48121 13.6281 3.31591 13.6281 3.14356C13.6281 2.97121 13.5596 2.80592 13.4378 2.68402L13.4378 2.68401M3.39083 13.6501L13.5085 2.61331L13.4378 2.68401M3.39083 13.6501H0.35M3.39083 13.6501H0.35M13.4378 2.68401L11.3161 0.562284M13.4378 2.68401L11.3161 0.562284M11.3161 0.562284C11.316 0.56228 11.316 0.562277 11.316 0.562273C11.1941 0.440424 11.0289 0.371973 10.8565 0.371973C10.6841 0.371973 10.5189 0.440424 10.397 0.562273C10.397 0.562277 10.397 0.56228 10.397 0.562284L0.35 10.6092V13.6501M11.3161 0.562284L0.35 13.6501M9.86671 5.33527L9.93742 5.26456L9.86671 5.19385L8.80621 4.13335L8.7355 4.06264L8.66479 4.13335L1.67929 11.1189L1.65 11.1481V11.1896V12.2501V12.3501H1.75H2.8105H2.85192L2.88121 12.3208L9.86671 5.33527ZM10.7858 4.27477L10.8565 4.34548L10.9272 4.27477L11.9877 3.21427L12.0584 3.14356L11.9877 3.07285L10.9272 2.01235L10.8565 1.94164L10.7858 2.01235L9.72529 3.07285L9.65458 3.14356L9.72529 3.21427L10.7858 4.27477Z" fill="black" stroke="white" stroke-width="0.2"/>
</svg>
