<svg width="18" height="18" viewBox="0 0 18 18" fill="none" xmlns="http://www.w3.org/2000/svg">
<path d="M11.6849 9C11.6849 10.485 10.4849 11.685 8.99994 11.685C7.51494 11.685 6.31494 10.485 6.31494 9C6.31494 7.515 7.51494 6.315 8.99994 6.315C10.4849 6.315 11.6849 7.515 11.6849 9Z" stroke="#87898E" stroke-width="1.2" stroke-linecap="round" stroke-linejoin="round"/>
<path d="M9 15.2025C11.6475 15.2025 14.115 13.6425 15.8325 10.9425C16.5075 9.88498 16.5075 8.10748 15.8325 7.04998C14.115 4.34998 11.6475 2.78998 9 2.78998C6.3525 2.78998 3.885 4.34998 2.1675 7.04998C1.4925 8.10748 1.4925 9.88498 2.1675 10.9425C3.885 13.6425 6.3525 15.2025 9 15.2025Z" stroke="#87898E" stroke-width="1.2" stroke-linecap="round" stroke-linejoin="round"/>
</svg>
