<svg width="25" height="25" viewBox="0 0 25 25" fill="none" xmlns="http://www.w3.org/2000/svg">
<path d="M0.5 12.5C0.5 5.87258 5.87258 0.5 12.5 0.5C19.1274 0.5 24.5 5.87258 24.5 12.5C24.5 19.1274 19.1274 24.5 12.5 24.5C5.87258 24.5 0.5 19.1274 0.5 12.5Z" fill="#23262F"/>
<path d="M12.4998 9.31065C13.4763 9.31065 14.1349 9.73243 14.5105 10.0849L15.978 8.65199C15.0767 7.81421 13.9038 7.29999 12.4998 7.29999C10.466 7.29999 8.7096 8.4671 7.85449 10.1658L9.53583 11.4715C9.9576 10.2178 11.1247 9.31065 12.4998 9.31065Z" fill="#FCFCFD"/>
<path d="M17.492 12.6155C17.492 12.188 17.4573 11.876 17.3822 11.5524H12.5V13.4822H15.3658C15.308 13.9618 14.996 14.684 14.3027 15.1693L15.9436 16.4404C16.9258 15.5333 17.492 14.1987 17.492 12.6155Z" fill="#FCFCFD"/>
<path d="M9.54158 13.5284C9.4318 13.2049 9.36825 12.8582 9.36825 12.5C9.36825 12.1418 9.4318 11.7951 9.5358 11.4715L7.85447 10.1658C7.50203 10.8707 7.2998 11.6622 7.2998 12.5C7.2998 13.3378 7.50203 14.1293 7.85447 14.8342L9.54158 13.5284Z" fill="#FCFCFD"/>
<path d="M12.4999 17.7C13.9039 17.7 15.0826 17.2378 15.9435 16.4404L14.3026 15.1693C13.8635 15.4756 13.2741 15.6893 12.4999 15.6893C11.1248 15.6893 9.95768 14.7822 9.54168 13.5284L7.86035 14.8342C8.71546 16.5329 10.4661 17.7 12.4999 17.7Z" fill="#FCFCFD"/>
</svg>
