<svg width="22" height="22" viewBox="0 0 22 22" fill="none" xmlns="http://www.w3.org/2000/svg">
<path fill-rule="evenodd" clip-rule="evenodd" d="M9 0H13C16.2495 0 17.7588 0.367598 19 1C20.0918 1.55628 20.4437 1.90825 21 3C21.6324 4.24116 22 5.75046 22 9V13C22 16.2495 21.6324 17.7588 21 19C20.4437 20.0918 20.0918 20.4437 19 21C17.7588 21.6324 16.2495 22 13 22H9C5.75046 22 4.24116 21.6324 3 21C1.90825 20.4437 1.55628 20.0918 1 19C0.367598 17.7588 0 16.2495 0 13V9C0 5.75046 0.367598 4.24116 1 3C1.55628 1.90825 1.90825 1.55628 3 1C4.24116 0.367598 5.75046 0 9 0ZM16 12C15.9075 12.2356 15.8307 12.7703 16 13C16.2158 13.2423 16.7586 13.7509 17 14C17.7145 14.7371 18.7719 15.2553 19 16C19.0804 16.4646 18.3886 16 18 16H16C15.869 16.0287 16.1742 16.0574 16 16C15.3967 15.8015 14.3974 15.4799 14 15C13.745 14.692 13.314 14.2391 13 14C12.8435 13.8809 13.1821 13.9031 13 14C12.5887 14.2161 12.0106 14.5789 12 15C11.992 15.3183 12.1813 15.7595 12 16C11.7607 16.2657 11.3787 16.0275 11 16C10.8938 15.9923 11.0859 16 11 16C7.08326 16.1406 4.16696 10.8967 3 8C2.86041 7.6086 3.60617 7 4 7H6C6.23947 7.04181 5.91072 7.75291 6 8C6.33549 8.82063 8.24267 12 9 12C9.75733 12 9.25714 8.56627 9 8C8.8637 7.80481 8.32713 8.05161 8 8C7.92914 7.98866 7.90185 8.12636 8 8C8.34334 7.55799 11.0786 6.78042 12 7C12.1822 7.04815 11.9186 6.81067 12 7C12.1843 7.43195 12.0428 8.26373 12 9C11.9469 9.91242 12.6244 11.6046 13 12C13.145 12.038 12.8727 12.1026 13 12C13.9675 11.0244 14.4605 9.24391 15 8C15.0693 7.81713 14.8287 8.04169 15 8C15.298 8 15.6675 7.99862 16 8C16.6969 8.00288 18.3485 8.00866 19 8C20.0077 8 17.9829 9.60669 17 11C16.617 11.5428 16.0647 11.8238 16 12Z" fill="#FDFDFD"/>
</svg>
