<svg width="22" height="22" viewBox="0 0 22 22" fill="none" xmlns="http://www.w3.org/2000/svg">
<path fill-rule="evenodd" clip-rule="evenodd" d="M1 3C0.367598 4.24116 0 5.75046 0 9V13C0 16.2495 0.367598 17.7588 1 19C1.55628 20.0918 1.90825 20.4437 3 21C4.24116 21.6324 5.75046 22 9 22H13C16.2495 22 17.7588 21.6324 19 21C20.0918 20.4437 20.4437 20.0918 21 19C21.6324 17.7588 22 16.2495 22 13V9C22 5.75046 21.6324 4.24116 21 3C20.4437 1.90825 20.0918 1.55628 19 1C17.7588 0.367598 16.2495 0 13 0H9C5.75046 0 4.24116 0.367598 3 1C1.90825 1.55628 1.55628 1.90825 1 3ZM11 15C13.1697 15 15 13.1697 15 11C15 8.83031 13.1697 7 11 7C8.83031 7 7 8.83031 7 11C7 13.1697 8.83031 15 11 15ZM13 11C13 12.3018 12.3018 13 11 13C9.69819 13 9 12.3018 9 11C9 9.69819 9.69819 9 11 9C12.3018 9 13 9.69819 13 11ZM4 6C3.48617 7.00844 3 8.35975 3 11C3 13.6402 3.48617 14.9916 4 16C4.45197 16.887 5.11295 17.548 6 18C7.00844 18.5138 8.35975 19 11 19C13.6402 19 14.9916 18.5138 16 18C16.887 17.548 17.548 16.887 18 16C18.5138 14.9916 19 13.6402 19 11C19 8.35975 18.5138 7.00844 18 6C17.548 5.11295 16.887 4.45197 16 4C14.9916 3.48617 13.6402 3 11 3C8.35975 3 7.00844 3.48617 6 4C5.11295 4.45197 4.45197 5.11295 4 6ZM11 5C12.3461 5 13.2927 4.94221 14 5C14.6889 5.05629 15.7542 4.87477 16 5C16.5914 5.30132 16.6987 5.40863 17 6C17.1252 6.24577 16.9437 7.31106 17 8C17.0578 8.70728 17 9.65395 17 11C17 12.3461 17.0578 13.2927 17 14C16.9437 14.6889 17.1252 15.7542 17 16C16.6987 16.5914 16.5914 16.6987 16 17C15.7542 17.1252 14.6889 16.9437 14 17C13.2927 17.0578 12.3461 17 11 17C9.65395 17 8.70728 17.0578 8 17C7.31106 16.9437 6.24577 17.1252 6 17C5.40863 16.6987 5.30132 16.5914 5 16C4.87477 15.7542 5.05629 14.6889 5 14C4.94221 13.2927 5 12.3461 5 11C5 9.65395 4.94221 8.70728 5 8C5.05629 7.31106 4.87477 6.24577 5 6C5.30132 5.40863 5.40863 5.30132 6 5C6.24577 4.87477 7.31106 5.05629 8 5C8.70728 4.94221 9.65395 5 11 5ZM17 7C17 7.65091 15.6509 8 15 8C14.3491 8 14 7.65091 14 7C14 6.34909 14.3491 5 15 5C15.6509 5 17 6.34909 17 7Z" fill="#FDFDFD"/>
</svg>
