<svg width="14" height="16" viewBox="0 0 14 16" fill="none" xmlns="http://www.w3.org/2000/svg">
<path d="M3.15 6.59995V6.49995V5.75V5.74995H3.25C3.24955 4.90489 3.53454 4.08445 4.05877 3.42165C4.583 2.75885 5.31572 2.29254 6.13816 2.09833C6.9606 1.90411 7.82452 1.99338 8.58987 2.35166C9.35485 2.70976 9.97651 3.31562 10.3542 4.07109L3.15 6.59995ZM3.15 6.59995H3.25H13C13.1724 6.59995 13.3377 6.66843 13.4596 6.79033C13.5815 6.91223 13.65 7.07755 13.65 7.24995V14.7499C13.65 14.9223 13.5815 15.0877 13.4596 15.2096C13.3377 15.3315 13.1724 15.3999 13 15.3999H1C0.827609 15.3999 0.662279 15.3315 0.540381 15.2096C0.418482 15.0877 0.35 14.9223 0.35 14.7499V7.24995C0.35 7.07756 0.418482 6.91223 0.540381 6.79033C0.662279 6.66843 0.827609 6.59995 1 6.59995H1.75H1.85V6.49995V5.74995V5.74991C1.84958 4.58947 2.24109 3.4629 2.96107 2.55281C3.68105 1.64273 4.68728 1.00248 5.81668 0.735842C6.94607 0.469206 8.13241 0.591816 9.1834 1.0838C10.2042 1.56164 11.0391 2.36071 11.5615 3.35737M3.15 6.59995L11.5615 3.35737M11.5615 3.35737L10.3984 3.93861C10.0072 3.20384 9.3878 2.61476 8.63227 2.26109L11.5615 3.35737ZM1.75 7.89995H1.65V7.99995V13.9999V14.0999H1.75H12.25H12.35V13.9999V7.99995V7.89995H12.25H1.75ZM5.6 10.3499H8.4V11.6499H5.6V10.3499Z" fill="black" stroke="white" stroke-width="0.2"/>
</svg>
