<svg width="80" height="80" viewBox="0 0 80 80" fill="none" xmlns="http://www.w3.org/2000/svg">
<rect width="80" height="80" rx="40" fill="#DFDFE6"/>
<g clip-path="url(#clip0_524_2607)">
<path d="M29.2 26V29.2H26.3V24.25C26.3 23.8654 26.4528 23.4966 26.7247 23.2247C26.9966 22.9528 27.3654 22.8 27.75 22.8H52.25C52.6346 22.8 53.0034 22.9528 53.2753 23.2247C53.5472 23.4966 53.7 23.8654 53.7 24.25V55.75C53.7 56.1346 53.5472 56.5034 53.2753 56.7753C53.0034 57.0472 52.6346 57.2 52.25 57.2H27.75C27.3654 57.2 26.9966 57.0472 26.7247 56.7753C26.4528 56.5034 26.3 56.1346 26.3 55.75V50.8H29.2V54V54.3H29.5H50.5H50.8V54V26V25.7H50.5H29.5H29.2V26ZM29.2 38.25V38.55H29.5H41.45V41.45H29.5H29.2V41.75V46.3758L21.2302 40L29.2 33.6242V38.25Z" fill="black" stroke="#DFDFE6" stroke-width="0.6"/>
</g>
<defs>
<clipPath id="clip0_524_2607">
<rect width="42" height="42" fill="white" transform="translate(19 19)"/>
</clipPath>
</defs>
</svg>
