<svg width="17" height="16" viewBox="0 0 17 16" fill="none" xmlns="http://www.w3.org/2000/svg">
<path d="M13.8999 3.81676L8.05326 9.05281L2.09924 3.79952L1.85 3.57961V3.912V12.75V12.9H2H9.35V14.1H1.25C1.09087 14.1 0.938257 14.0368 0.825736 13.9243C0.713214 13.8117 0.65 13.6591 0.65 13.5V1.5C0.65 1.34087 0.713214 1.18826 0.825736 1.07574C0.938258 0.963214 1.09087 0.9 1.25 0.9H14.75C14.9091 0.9 15.0617 0.963214 15.1743 1.07574C15.2868 1.18826 15.35 1.34087 15.35 1.5V8.1H14.15V3.9285V3.59281L13.8999 3.81676ZM2.38325 2.1H1.98654L2.284 2.36247L7.9465 7.35897L8.04647 7.44719L8.1458 7.35825L13.7266 2.36175L14.0189 2.1H13.6265H2.38325ZM14.6 12V12.15H14.75H16.85V13.35H14.75H14.6V13.5V15.6H13.4V13.5V13.35H13.25H11.15V12.15H13.25H13.4V12V9.9H14.6V12Z" fill="white" stroke="white" stroke-width="0.3"/>
</svg>
