<svg width="18" height="18" viewBox="0 0 18 18" fill="none" xmlns="http://www.w3.org/2000/svg">
<g clip-path="url(#clip0_438_1522)">
<path d="M4.4 3V4.4H3.1V2.25C3.1 2.07761 3.16848 1.91228 3.29038 1.79038C3.41228 1.66848 3.57761 1.6 3.75 1.6H14.25C14.4224 1.6 14.5877 1.66848 14.7096 1.79038C14.8315 1.91228 14.9 2.07761 14.9 2.25V15.75C14.9 15.9224 14.8315 16.0877 14.7096 16.2096C14.5877 16.3315 14.4224 16.4 14.25 16.4H3.75C3.57761 16.4 3.41228 16.3315 3.29038 16.2096C3.16848 16.0877 3.1 15.9224 3.1 15.75V13.6H4.4V15V15.1H4.5H13.5H13.6V15V3V2.9H13.5H4.5H4.4V3ZM4.4 8.25V8.35H4.5H9.65V9.65H4.5H4.4V9.75V11.7919L0.910078 9L4.4 6.20806V8.25Z" fill="black" stroke="white" stroke-width="0.2"/>
</g>
<defs>
<clipPath id="clip0_438_1522">
<rect width="18" height="18" fill="white"/>
</clipPath>
</defs>
</svg>
