<svg width="18" height="18" viewBox="0 0 18 18" fill="none" xmlns="http://www.w3.org/2000/svg">
<path d="M12.7987 6.75673L12.8694 6.68602L12.7987 6.61531L11.3847 5.20131L11.314 5.1306L11.2433 5.20131L1.92929 14.5153L1.9 14.5446V14.586V16V16.1H2H3.414H3.45542L3.48471 16.0707L12.7987 6.75673ZM14.0713 5.34273L14.142 5.41344L14.2127 5.34273L15.6267 3.92873L15.6974 3.85802L15.6267 3.78731L14.2127 2.37331L14.142 2.3026L14.0713 2.37331L12.6573 3.78731L12.5866 3.85802L12.6573 3.92873L14.0713 5.34273ZM17.6073 4.49432L4.20158 17.9H0.1V13.7984L13.5057 0.392744C13.5057 0.39274 13.5057 0.392737 13.5057 0.392733C13.6745 0.224016 13.9034 0.129236 14.142 0.129236C14.3806 0.129236 14.6095 0.224016 14.7783 0.392733C14.7783 0.392737 14.7783 0.39274 14.7783 0.392744L17.6073 3.22173C17.776 3.3905 17.8708 3.61937 17.8708 3.85802C17.8708 4.09667 17.776 4.32555 17.6073 4.49432Z" fill="black" stroke="white" stroke-width="0.2"/>
</svg>
