<svg width="18" height="19" viewBox="0 0 18 19" fill="none" xmlns="http://www.w3.org/2000/svg">
<path d="M9 3.2C9.43492 3.2 9.7875 3.55257 9.7875 3.9875V8.7125H14.5125C14.9474 8.7125 15.3 9.06507 15.3 9.5C15.3 9.93492 14.9474 10.2875 14.5125 10.2875H9.7875V15.0125C9.7875 15.4474 9.43492 15.8 9 15.8C8.56507 15.8 8.2125 15.4474 8.2125 15.0125V10.2875H3.4875C3.05257 10.2875 2.7 9.93492 2.7 9.5C2.7 9.06507 3.05257 8.7125 3.4875 8.7125H8.2125V3.9875C8.2125 3.55257 8.56507 3.2 9 3.2Z" fill="white"/>
</svg>
