<svg width="18" height="15" viewBox="0 0 18 15" fill="none" xmlns="http://www.w3.org/2000/svg">
<path d="M9.65394 3.38L9.65403 3.38C9.68431 2.97748 9.86561 2.60127 10.1616 2.3268C10.4576 2.05234 10.8464 1.89989 11.25 1.9L9.65394 3.38ZM9.65394 3.38L9.65381 3.38417M9.65394 3.38L9.65381 3.38417M9.65381 3.38417L9.65006 3.49667L9.65 3.49667M9.65381 3.38417L9.65 3.49667M9.65 3.49667V3.5M9.65 3.49667V3.5M9.65 3.5V5V5.1M9.65 3.5V5.1M9.65 5.1H9.75M9.65 5.1H9.75M9.75 5.1H11.25C11.25 5.1 11.25 5.1 11.25 5.1C11.6536 5.10012 12.0424 4.94767 12.3384 4.67321C12.6344 4.39873 12.8157 4.02253 12.846 3.62L12.8461 3.62001M9.75 5.1L12.8461 3.62001M12.8461 3.62001L12.8462 3.61584M12.8461 3.62001L12.8462 3.61584M12.8462 3.61584L12.8499 3.50334L12.85 3.50334M12.8462 3.61584L12.85 3.50334M12.85 3.50334V3.5M12.85 3.50334V3.5M12.85 3.5C12.85 3.07566 12.6814 2.66869 12.3814 2.36863M12.85 3.5L12.3814 2.36863M12.3814 2.36863C12.0813 2.06858 11.6744 1.90001 11.25 1.9L12.3814 2.36863ZM13.7614 4.95073L13.6747 5.10079L13.848 5.10075L17.15 5.10003V6.4H15.75H15.65V6.5V14C15.65 14.1724 15.5815 14.3377 15.4596 14.4596C15.3377 14.5815 15.1724 14.65 15 14.65H3C2.82761 14.65 2.66228 14.5815 2.54038 14.4596C2.41848 14.3377 2.35 14.1724 2.35 14V6.5V6.4H2.25H0.85V5.10003L4.15198 5.10075L4.32525 5.10079L4.2386 4.95075C3.8789 4.32789 3.7635 3.59359 3.9148 2.89042C4.0661 2.18725 4.47331 1.56541 5.05736 1.14562C5.64141 0.725834 6.36062 0.538068 7.07534 0.618782C7.79006 0.699496 8.44928 1.04293 8.925 1.58239L9.00016 1.66763L9.07514 1.58223C9.34668 1.27298 9.6812 1.02535 10.0563 0.855948C10.4313 0.686544 10.8383 0.599279 11.2498 0.600004L11.25 0.500005L11.25 0.600005C11.7592 0.599944 12.2594 0.733935 12.7003 0.988506C13.1413 1.24308 13.5074 1.60925 13.762 2.05022C14.0165 2.49118 14.1505 2.99139 14.1504 3.50055C14.1503 4.0097 14.0161 4.50986 13.7614 4.95073ZM8.35 6.5V6.4H8.25H3.75H3.65V6.5V13.25V13.35H3.75H8.25H8.35V13.25V6.5ZM14.35 6.5V6.4H14.25H9.75H9.65V6.5V13.25V13.35H9.75H14.25H14.35V13.25V6.5ZM6.75335 1.90006L6.75336 1.90002L6.75045 1.90001C6.33526 1.89815 5.93561 2.05775 5.63593 2.34511C5.33624 2.63246 5.15999 3.02506 5.14441 3.43996C5.12884 3.85486 5.27515 4.25956 5.55244 4.56858C5.82973 4.8776 6.21629 5.06672 6.63045 5.09601L6.63044 5.09608L6.63417 5.0962L6.74667 5.09995L6.74667 5.1H6.75H8.25H8.35V5V3.5C8.35002 3.11766 8.21311 2.74794 7.96407 2.45781C7.71504 2.16769 7.37034 1.97633 6.9924 1.91841L6.99241 1.91835L6.98886 1.91793L6.87336 1.90443L6.8734 1.90409L6.8651 1.90381L6.75335 1.90006Z" fill="black" stroke="white" stroke-width="0.2"/>
</svg>
