<svg width="30" height="30" viewBox="0 0 30 30" fill="none" xmlns="http://www.w3.org/2000/svg">
<path fill-rule="evenodd" clip-rule="evenodd" d="M15 0C6.71573 0 0 6.71573 0 15C0 23.2843 6.71573 30 15 30C23.2843 30 30 23.2843 30 15C30 6.71573 23.2843 0 15 0ZM16.2213 19.7351C16.0734 19.8911 15.7847 19.9225 15.7847 19.9225H14.8284C14.8284 19.9225 12.7186 20.047 10.86 18.1481C8.83318 16.0764 7.04346 11.966 7.04346 11.966C7.04346 11.966 6.94016 11.6963 7.05207 11.5665C7.17806 11.4198 7.52161 11.4106 7.52161 11.4106L9.80747 11.396C9.80747 11.396 10.0227 11.4306 10.1768 11.5419C10.3044 11.6341 10.3756 11.8054 10.3756 11.8054C10.3756 11.8054 10.745 12.7226 11.2341 13.5522C12.1896 15.1723 12.6341 15.5264 12.9581 15.3528C13.4307 15.1 13.2891 13.0629 13.2891 13.0629C13.2891 13.0629 13.2977 12.3239 13.0512 11.9944C12.8602 11.7394 12.5003 11.6648 12.3414 11.6441C12.2123 11.6272 12.4236 11.3338 12.6975 11.2024C13.1091 11.005 13.8353 10.9935 14.6938 11.0019C15.3629 11.0088 15.5554 11.0495 15.8167 11.1118C16.4234 11.2555 16.4044 11.716 16.3636 12.7098C16.3513 13.007 16.3372 13.352 16.3372 13.7504C16.3372 13.8399 16.3345 13.9354 16.3318 14.0336C16.3176 14.5427 16.3013 15.1258 16.6431 15.3428C16.8184 15.4534 17.2465 15.3589 18.3178 13.5737C18.8257 12.7272 19.206 11.7324 19.206 11.7324C19.206 11.7324 19.2898 11.555 19.4189 11.4789C19.5511 11.4014 19.7296 11.4252 19.7296 11.4252L22.1351 11.4106C22.1351 11.4106 22.8582 11.3253 22.9748 11.6464C23.0977 11.9821 22.7048 12.7672 21.722 14.053C20.7896 15.2732 20.3359 15.7224 20.3775 16.1197C20.4079 16.41 20.7029 16.6726 21.2688 17.1879C22.4504 18.2647 22.767 18.8312 22.8431 18.9673C22.8494 18.9786 22.8541 18.9869 22.8574 18.9923C23.3872 19.855 22.2697 19.9225 22.2697 19.9225L20.1326 19.9517C20.1326 19.9517 19.674 20.0408 19.0699 19.6337C18.7534 19.4206 18.4441 19.0726 18.1496 18.7411C17.6998 18.2349 17.2842 17.7672 16.9296 17.8777C16.334 18.0636 16.352 19.3226 16.352 19.3226C16.352 19.3226 16.3567 19.5922 16.2213 19.7351Z" fill="#B3B3B3"/>
</svg>
