<svg width="30" height="30" viewBox="0 0 30 30" fill="none" xmlns="http://www.w3.org/2000/svg">
<path fill-rule="evenodd" clip-rule="evenodd" d="M0 15C0 23.2843 6.71573 30 15 30C23.2843 30 30 23.2843 30 15C30 6.71573 23.2843 0 15 0C6.71573 0 0 6.71573 0 15ZM12.25 21.875L12.5052 18.0514L12.505 18.0513L19.4606 11.7744C19.7658 11.5035 19.3939 11.3713 18.9887 11.6171L10.4045 17.0327L6.69667 15.8754C5.89594 15.6302 5.89019 15.08 6.87645 14.6844L21.3252 9.11304C21.9851 8.81344 22.622 9.27154 22.3701 10.2816L19.9095 21.8769C19.7377 22.7009 19.2398 22.898 18.55 22.5174L14.8017 19.7481L13 21.5C12.9943 21.5055 12.9887 21.511 12.983 21.5165C12.7815 21.7127 12.6148 21.875 12.25 21.875Z" fill="#B3B3B3"/>
</svg>
