<svg width="45" height="45" viewBox="0 0 45 45" fill="none" xmlns="http://www.w3.org/2000/svg">
<rect width="45" height="45" rx="22.5" fill="#FFEBEB"/>
<g clip-path="url(#clip0_411_1875)">
<path d="M27.4 16.5V16.6H27.5H32.4V18.4H30.5H30.4V18.5V31.5C30.4 31.7387 30.3052 31.9676 30.1364 32.1364C29.9676 32.3052 29.7387 32.4 29.5 32.4H15.5C15.2613 32.4 15.0324 32.3052 14.8636 32.1364C14.6948 31.9676 14.6 31.7387 14.6 31.5V18.5V18.4H14.5H12.6V16.6H17.5H17.6V16.5V13.5C17.6 13.2613 17.6948 13.0324 17.8636 12.8636C18.0324 12.6948 18.2613 12.6 18.5 12.6H26.5C26.7387 12.6 26.9676 12.6948 27.1364 12.8636C27.3052 13.0324 27.4 13.2613 27.4 13.5V16.5ZM28.6 18.5V18.4H28.5H16.5H16.4V18.5V30.5V30.6H16.5H28.5H28.6V30.5V18.5ZM19.5 14.4H19.4V14.5V16.5V16.6H19.5H25.5H25.6V16.5V14.5V14.4H25.5H19.5Z" fill="#E53535" stroke="white" stroke-width="0.2"/>
</g>
<defs>
<clipPath id="clip0_411_1875">
<rect width="24" height="24" fill="white" transform="translate(10.5 10.5)"/>
</clipPath>
</defs>
</svg>
