<svg width="18" height="18" viewBox="0 0 18 18" fill="none" xmlns="http://www.w3.org/2000/svg">
<g clip-path="url(#clip0_438_1527)">
<path d="M3.10085 16.4C3.12673 14.8714 3.7452 13.4109 4.82807 12.3281C5.93453 11.2216 7.43522 10.6 9 10.6C10.5648 10.6 12.0655 11.2216 13.1719 12.3281C14.2548 13.4109 14.8733 14.8714 14.8992 16.4H13.5989C13.5732 15.2162 13.0918 14.0864 12.2527 13.2473C11.39 12.3846 10.22 11.9 9 11.9C7.78 11.9 6.60998 12.3846 5.74731 13.2473C4.90824 14.0864 4.4268 15.2162 4.40109 16.4H3.10085ZM9 9.65C6.56898 9.65 4.6 7.68102 4.6 5.25C4.6 2.81898 6.56898 0.85 9 0.85C11.431 0.85 13.4 2.81898 13.4 5.25C13.4 7.68102 11.431 9.65 9 9.65ZM9 8.35C10.7127 8.35 12.1 6.96273 12.1 5.25C12.1 3.53727 10.7127 2.15 9 2.15C7.28727 2.15 5.9 3.53727 5.9 5.25C5.9 6.96273 7.28727 8.35 9 8.35Z" fill="black" stroke="white" stroke-width="0.2"/>
</g>
<defs>
<clipPath id="clip0_438_1527">
<rect width="18" height="18" fill="white"/>
</clipPath>
</defs>
</svg>
