<svg width="16" height="16" viewBox="0 0 16 16" fill="none" xmlns="http://www.w3.org/2000/svg">
<path d="M7.75 15.6375C3.66988 15.6375 0.3625 12.3301 0.3625 8.25C0.3625 4.16988 3.66988 0.8625 7.75 0.8625C11.8301 0.8625 15.1375 4.16988 15.1375 8.25C15.1375 12.3301 11.8301 15.6375 7.75 15.6375ZM7.75 14.3625C9.37114 14.3625 10.9259 13.7185 12.0722 12.5722C13.2185 11.4259 13.8625 9.87114 13.8625 8.25C13.8625 6.62886 13.2185 5.07413 12.0722 3.92781C10.9259 2.78149 9.37114 2.1375 7.75 2.1375C6.12886 2.1375 4.57413 2.78149 3.42781 3.92781C2.28149 5.07413 1.6375 6.62886 1.6375 8.25C1.6375 9.87114 2.28149 11.4259 3.42781 12.5722C4.57413 13.7185 6.12886 14.3625 7.75 14.3625ZM8.3875 10.6125V11.8875H7.1125V10.6125H8.3875ZM8.3875 4.6125V8.8875H7.1125V4.6125H8.3875Z" fill="#F83B3B" stroke="white" stroke-width="0.225"/>
</svg>
