<svg width="32" height="32" viewBox="0 0 32 32" fill="none" xmlns="http://www.w3.org/2000/svg">
<path d="M27 0H5C2.23858 0 0 2.23858 0 5V27C0 29.7614 2.23858 32 5 32H27C29.7614 32 32 29.7614 32 27V5C32 2.23858 29.7614 0 27 0Z" fill="#0088CC"/>
<path d="M16.7847 20.9225C16.7847 20.9225 17.0734 20.8911 17.2213 20.7351C17.3567 20.5922 17.352 20.3226 17.352 20.3226C17.352 20.3226 17.334 19.0636 17.9296 18.8777C18.5165 18.6949 19.2701 20.0952 20.0699 20.6337C20.674 21.0408 21.1326 20.9517 21.1326 20.9517L23.2697 20.9225C23.2697 20.9225 24.3872 20.855 23.8574 19.9923C23.8136 19.9216 23.5483 19.354 22.2688 18.1879C20.9283 16.9673 21.1083 17.1647 22.722 15.053C23.7048 13.7672 24.0977 12.9821 23.9748 12.6464C23.8582 12.3253 23.1351 12.4106 23.1351 12.4106L20.7296 12.4252C20.7296 12.4252 20.5511 12.4014 20.4189 12.4789C20.2898 12.555 20.206 12.7324 20.206 12.7324C20.206 12.7324 19.8257 13.7272 19.3178 14.5737C18.2465 16.3589 17.8184 16.4534 17.6431 16.3428C17.2354 16.0839 17.3372 15.3042 17.3372 14.7504C17.3372 13.0197 17.6048 12.2984 16.8167 12.1118C16.5554 12.0495 16.3629 12.0088 15.6938 12.0019C14.8353 11.9935 14.1091 12.005 13.6975 12.2024C13.4236 12.3338 13.2123 12.6272 13.3414 12.6441C13.5003 12.6648 13.8602 12.7394 14.0512 12.9944C14.2977 13.3239 14.2891 14.0629 14.2891 14.0629C14.2891 14.0629 14.4307 16.1 13.9581 16.3528C13.6341 16.5264 13.1896 16.1723 12.2341 14.5522C11.745 13.7226 11.3756 12.8054 11.3756 12.8054C11.3756 12.8054 11.3044 12.6341 11.1768 12.5419C11.0227 12.4306 10.8075 12.396 10.8075 12.396L8.52161 12.4106C8.52161 12.4106 8.17806 12.4198 8.05207 12.5665C7.94016 12.6963 8.04346 12.966 8.04346 12.966C8.04346 12.966 9.83318 17.0764 11.86 19.1481C13.7186 21.047 15.8284 20.9225 15.8284 20.9225H16.7847Z" fill="white"/>
</svg>
