<svg width="24" height="24" viewBox="0 0 24 24" fill="none" xmlns="http://www.w3.org/2000/svg">
<g clip-path="url(#clip0_8145_143)">
<path d="M18.5464 7.85099C18.8442 7.28057 19.0004 6.6459 19.0005 6.00075C19.0006 5.29847 18.8158 4.60853 18.4647 4.0003C18.1137 3.39207 17.6086 2.887 17.0004 2.53587C16.3922 2.18474 15.7023 1.99992 15 2.00001C14.4323 1.99901 13.8709 2.11939 13.3535 2.35308C12.8819 2.56606 12.4569 2.86866 12.1017 3.24356L18.5464 7.85099ZM18.5464 7.85099L18.464 7.85101L18.464 8.00101L18.5939 8.07604C18.6083 8.05115 18.6224 8.02612 18.6362 8.00097L18.5464 7.85099ZM12.8553 5.83875L12.8554 5.83876C12.8961 5.29786 13.1397 4.79234 13.5375 4.42352C13.9352 4.0547 14.4576 3.84985 15 3.85001L12.8553 5.83875ZM12.8553 5.83875L12.8551 5.84501M12.8553 5.83875L12.8551 5.84501M12.8551 5.84501L12.8501 5.99501L12.85 5.99501M12.8551 5.84501L12.85 5.99501M12.85 5.99501V6.00001M12.85 5.99501V6.00001M12.85 6.00001V8.00001V8.15001M12.85 6.00001V8.15001M12.85 8.15001H13M12.85 8.15001H13M13 8.15001H15C15 8.15001 15 8.15001 15 8.15001C15.5424 8.15017 16.0648 7.94531 16.4625 7.5765C16.8603 7.20767 17.1039 6.70215 17.1446 6.16126L17.1447 6.16127M13 8.15001L17.1447 6.16127M17.1447 6.16127L17.1449 6.155M17.1447 6.16127L17.1449 6.155M17.1449 6.155L17.1499 6.005L17.15 6.00501M17.1449 6.155L17.15 6.00501M17.15 6.00501V6.00001M17.15 6.00501V6.00001M17.15 6.00001C17.15 5.42979 16.9235 4.88293 16.5203 4.47973M17.15 6.00001L16.5203 4.47973M16.5203 4.47973C16.1171 4.07653 15.5702 3.85002 15 3.85001L16.5203 4.47973ZM14.9997 2.15001L15 2.15001C15.676 2.14993 16.34 2.32781 16.9254 2.66578C17.5108 3.00374 17.9969 3.48987 18.3348 4.07529C18.6728 4.66071 18.8506 5.32478 18.8505 6.00073C18.8503 6.67667 18.6723 7.34068 18.3341 7.92597L18.2041 8.15106L18.464 8.15101L22.85 8.15004V9.85001H21H20.85V10V20C20.85 20.2254 20.7604 20.4416 20.601 20.601C20.4416 20.7605 20.2254 20.85 20 20.85H4C3.77457 20.85 3.55837 20.7605 3.39896 20.601C3.23955 20.4416 3.15 20.2254 3.15 20V10V9.85001H3H1.15V8.15004L5.53597 8.15101L5.79587 8.15106L5.66589 7.92599C5.18836 7.0991 5.03516 6.12425 5.23603 5.19073C5.43689 4.25722 5.9775 3.43166 6.75288 2.87436C7.52826 2.31706 8.48307 2.06778 9.43192 2.17494C10.3808 2.28209 11.2559 2.73803 11.8875 3.45422L12.0002 3.58207L12.1127 3.45398C12.4732 3.04342 12.9173 2.71468 13.4152 2.48979C13.9131 2.26489 14.4534 2.14904 14.9997 2.15001ZM11.15 10V9.85001H11H5H4.85V10V19V19.15H5H11H11.15V19V10ZM19.15 10V9.85001H19H13H12.85V10V19V19.15H13H19H19.15V19V10ZM9.00503 3.85009L9.00503 3.85003L9.00067 3.85001C8.44276 3.84751 7.90573 4.06198 7.50303 4.44811C7.10033 4.83425 6.8635 5.3618 6.84256 5.91932C6.82163 6.47684 7.01824 7.02066 7.39085 7.4359C7.76346 7.85115 8.2829 8.10529 8.83942 8.14463L8.83941 8.14474L8.845 8.14492L8.995 8.14992L8.995 8.15001H9H11H11.15V8.00001V6.00001C11.15 5.48623 10.9661 4.98942 10.6314 4.59956C10.2968 4.20971 9.83358 3.95258 9.32573 3.87474L9.32574 3.87464L9.32041 3.87402L9.16641 3.85602L9.16647 3.85551L9.15403 3.85509L9.00503 3.85009Z" fill="white" stroke="url(#paint0_linear_8145_143)" stroke-width="0.3"/>
</g>
<defs>
<linearGradient id="paint0_linear_8145_143" x1="12" y1="2" x2="12" y2="21" gradientUnits="userSpaceOnUse">
<stop stop-color="#8639B5"/>
<stop offset="1" stop-color="#092056"/>
</linearGradient>
<clipPath id="clip0_8145_143">
<rect width="24" height="24" fill="white"/>
</clipPath>
</defs>
</svg>
