<svg width="24" height="24" viewBox="0 0 24 24" fill="none" xmlns="http://www.w3.org/2000/svg">
<g clip-path="url(#clip0_8145_153)">
<path d="M21.2709 18.7349L18.017 21.9879L14.7651 18.7349L14.7651 18.7349C14.3712 18.3411 14.15 17.807 14.15 17.25C14.15 16.693 14.3712 16.1589 14.7651 15.7651C15.1589 15.3712 15.693 15.15 16.25 15.15C16.8068 15.15 17.3408 15.3711 17.7346 15.7648C17.7347 15.7649 17.7348 15.765 17.7349 15.7651L17.9106 15.9418L18.0164 16.0481L18.1228 15.9424L18.3008 15.7654L18.3011 15.7651C18.4961 15.5701 18.7276 15.4154 18.9824 15.3098C19.2371 15.2043 19.5102 15.15 19.786 15.15C20.0618 15.15 20.3349 15.2043 20.5896 15.3098C20.8444 15.4154 21.0759 15.5701 21.2709 15.7651C21.4659 15.9601 21.6206 16.1916 21.7262 16.4464C21.8317 16.7011 21.886 16.9742 21.886 17.25C21.886 17.5258 21.8317 17.7989 21.7262 18.0536C21.6206 18.3084 21.4659 18.5399 21.271 18.7349C21.2709 18.7349 21.2709 18.7349 21.2709 18.7349ZM6.15 7V6.99995C6.14946 5.48624 6.73587 4.0313 7.78594 2.94104C8.83568 1.85114 10.267 1.21058 11.7791 1.15395L12.0013 1.15C15.2329 1.15072 17.85 3.76828 17.85 7V7.00005C17.8505 8.51376 17.2641 9.9687 16.2141 11.059C15.1643 12.1489 13.733 12.7894 12.2209 12.846L11.9986 12.85C8.7671 12.8493 6.15 10.2317 6.15 7ZM11.7536 14.154L11.85 14.1524V15.8518C10.2733 15.8903 8.76924 16.5333 7.65129 17.6513C6.53335 18.7692 5.89025 20.2733 5.85183 21.85H4.15143C4.18936 19.8647 4.9786 17.9652 6.36318 16.5367C7.78234 15.0725 9.71553 14.218 11.7536 14.154ZM12 2.85C9.70716 2.85 7.85 4.70716 7.85 7C7.85 9.29284 9.70716 11.15 12 11.15C14.2928 11.15 16.15 9.29284 16.15 7C16.15 4.70716 14.2928 2.85 12 2.85Z" fill="white" stroke="url(#paint0_linear_8145_153)" stroke-width="0.3"/>
</g>
<defs>
<linearGradient id="paint0_linear_8145_153" x1="13.018" y1="1" x2="13.018" y2="22.2" gradientUnits="userSpaceOnUse">
<stop stop-color="#8639B5"/>
<stop offset="1" stop-color="#092056"/>
</linearGradient>
<clipPath id="clip0_8145_153">
<rect width="24" height="24" fill="white"/>
</clipPath>
</defs>
</svg>
