<svg width="22" height="21" viewBox="0 0 22 21" fill="none" xmlns="http://www.w3.org/2000/svg">
<path d="M9.28967 17.0039C9.25293 17.1478 9.26655 17.2999 9.32829 17.4349C9.39002 17.57 9.49613 17.6798 9.62896 17.7462L9.629 17.7462L10.29 18.0762L10.4053 18.1337L10.4795 18.0285L15.1895 11.3565C15.1895 11.3565 15.1895 11.3565 15.1895 11.3565C15.427 11.0203 15.731 10.7447 16.0762 10.5412L16 10.412H16.15V2V1.85L9.435 17.041M9.28967 17.0039L9.435 17.041M9.28967 17.0039L9.28964 17.004L9.435 17.041M9.28967 17.0039L10.1926 13.456M9.435 17.041L10.338 13.493M10.1926 13.456L10.338 13.493M10.1926 13.456C10.2621 13.183 10.2682 12.8976 10.2107 12.6218C10.1531 12.346 10.0332 12.087 9.8603 11.8646C9.68737 11.6421 9.46592 11.4621 9.21284 11.3383C8.95977 11.2144 8.68175 11.15 8.4 11.15M10.1926 13.456L10.1926 13.456L10.338 13.493M10.338 13.493L8.4 11.15M8.4 11.15V11L8.39998 11.15C8.39999 11.15 8.39999 11.15 8.4 11.15ZM8.54536 13.037L8.59297 12.85H8.4H2C1.50935 12.85 1.0388 12.6551 0.691854 12.3081C0.344911 11.9612 0.150001 11.4907 0.150001 11L0.150001 8.896L0.150001 8.89585C0.149752 8.65412 0.196878 8.41469 0.288714 8.19108C0.288726 8.19106 0.288739 8.19102 0.288751 8.191L3.38469 0.677144L3.38475 0.677C3.44874 0.52124 3.55755 0.387996 3.69738 0.29417C3.83721 0.200345 4.00176 0.150166 4.17015 0.15L21 0.15C21.2254 0.15 21.4416 0.239553 21.601 0.398959C21.7604 0.558365 21.85 0.774566 21.85 1V11C21.85 11.2254 21.7604 11.4416 21.601 11.601C21.4416 11.7604 21.2254 11.85 21 11.85H17.518C17.518 11.85 17.518 11.85 17.518 11.85C17.3339 11.85 17.1525 11.8941 16.989 11.9788C16.8255 12.0634 16.6847 12.1861 16.5785 12.3365L16.5785 12.3365L11.1255 20.0625L11.1254 20.0625C11.0772 20.1309 11.006 20.1797 10.9249 20.2001C10.8437 20.2206 10.7579 20.2112 10.683 20.1738L8.86914 19.2659L8.86906 19.2658C8.38919 19.026 8.00583 18.6292 7.78268 18.1413C7.55952 17.6534 7.51001 17.1039 7.64236 16.584L8.54536 13.037ZM17.85 10V10.15H18H20H20.15V10V2V1.85H20H18H17.85V2V10Z" fill="white" stroke="url(#paint0_linear_10763_863)" stroke-width="0.3"/>
<defs>
<linearGradient id="paint0_linear_10763_863" x1="11" y1="0" x2="11" y2="20.3607" gradientUnits="userSpaceOnUse">
<stop stop-color="#8639B5"/>
<stop offset="1" stop-color="#092056"/>
</linearGradient>
</defs>
</svg>
