<svg width="22" height="23" viewBox="0 0 22 23" fill="none" xmlns="http://www.w3.org/2000/svg">
<path fill-rule="evenodd" clip-rule="evenodd" d="M11 22C17.0751 22 22 17.0751 22 11C22 4.92487 17.0751 0 11 0C4.92487 0 0 4.92487 0 11C0 16.4216 3.83818 21.0934 9 22C9.56182 22.086 10.4145 22 11 22C11.0326 22 10.9674 22.0003 11 22C11.032 22.0003 10.968 22 11 22ZM11 22C11.5518 21.9954 12.4695 22.0812 13 22V14H15L16 11H13V9C13 8.15042 12.6309 8 14 8H16V5C16 5 14.2055 5 13 5C10.4814 5 9 6.30853 9 9V11H6V14H9V22C9.59169 22.1039 10.3798 21.9947 11 22Z" fill="#FDFDFD"/>
</svg>
