<svg width="24" height="24" viewBox="0 0 24 24" fill="none" xmlns="http://www.w3.org/2000/svg">
<g clip-path="url(#clip0_416_1950)">
<path d="M17.6934 3.61824C18.607 4.02888 19.3881 4.68833 19.9464 5.52265C20.5359 6.40364 20.8504 7.43991 20.85 8.49994V8.50005C20.8504 9.83494 20.3517 11.1218 19.4518 12.1077C18.5889 13.0531 17.4169 13.6563 16.15 13.8112V12.0927C16.8734 11.9626 17.5418 11.6168 18.0666 11.0993C18.6224 10.5512 18.9879 9.83935 19.1093 9.06827C19.2308 8.2972 19.1018 7.50749 18.7414 6.8151C18.4005 6.16001 17.8693 5.62468 17.2191 5.27854L17.6934 3.61824ZM2.15143 21.85C2.19014 19.8223 3.01244 17.886 4.44921 16.4492C5.92137 14.9771 7.91805 14.15 10 14.15C12.0819 14.15 14.0786 14.9771 15.5508 16.4492C16.9876 17.886 17.8099 19.8223 17.8486 21.85H16.1482C16.1097 20.2733 15.4667 18.7692 14.3487 17.6513C13.1954 16.4979 11.6311 15.85 10 15.85C8.36892 15.85 6.80464 16.4979 5.65129 17.6513C4.53335 18.7692 3.89025 20.2733 3.85183 21.85H2.15143ZM10 12.85C6.76784 12.85 4.15 10.2322 4.15 7C4.15 3.76784 6.76784 1.15 10 1.15C13.2322 1.15 15.85 3.76784 15.85 7C15.85 10.2322 13.2322 12.85 10 12.85ZM10 11.15C12.2928 11.15 14.15 9.29284 14.15 7C14.15 4.70716 12.2928 2.85 10 2.85C7.70716 2.85 5.85 4.70716 5.85 7C5.85 9.29284 7.70716 11.15 10 11.15ZM17.6605 16.4534L18.3579 14.9023C19.678 15.5273 20.7987 16.5087 21.5926 17.7371C22.3864 18.9653 22.8208 20.3899 22.8486 21.85H21.1482C21.1208 20.7174 20.781 19.6133 20.1651 18.6602C19.5491 17.707 18.6819 16.9437 17.6605 16.4534Z" fill="white" stroke="url(#paint0_linear_416_1950)" stroke-width="0.3"/>
</g>
<defs>
<linearGradient id="paint0_linear_416_1950" x1="12.5" y1="1" x2="12.5" y2="22" gradientUnits="userSpaceOnUse">
<stop stop-color="#8639B5"/>
<stop offset="1" stop-color="#092056"/>
</linearGradient>
<clipPath id="clip0_416_1950">
<rect width="24" height="24" fill="white"/>
</clipPath>
</defs>
</svg>
