<svg width="65" height="66" viewBox="0 0 65 66" fill="none" xmlns="http://www.w3.org/2000/svg">
<circle r="23.5" transform="matrix(-0.485951 0.873986 -0.866488 -0.499199 32.4585 32.995)" stroke="url(#paint0_linear_515_2323)"/>
<g clip-path="url(#clip0_515_2323)">
<path d="M30.9172 34H32.9172C34.1363 34 35.0551 34.1638 35.9172 35C36.7792 35.8362 36.9172 36.8174 36.9172 38H29.9172V39H37.9172V38C37.9139 36.9456 37.505 35.8869 36.9172 35H39.9172C40.8828 34.9997 42.1007 35.5 42.9172 36C43.7337 36.5 44.5022 37.1543 44.9172 38C42.5013 41.0926 38.3321 43 33.9172 43C31.0968 43 28.858 42.0256 26.9172 41V32C28.1599 32.1727 29.9319 33.2452 30.9172 34ZM24.9172 31C25.1674 31 25.7302 30.8387 25.9172 31C26.1041 31.1613 25.8879 31.759 25.9172 32V41C25.9172 41.2628 26.1087 41.8142 25.9172 42C25.7256 42.1858 25.1881 42 24.9172 42H22.9172C22.6463 42 22.1087 42.1858 21.9172 42C21.7256 41.8142 21.9172 41.2628 21.9172 41V32C21.9172 31.7372 21.7256 31.1858 21.9172 31C22.1087 30.8142 22.6463 31 22.9172 31H24.9172ZM34.9172 26H35.9172C36.154 25.7683 35.6069 25.1258 35.9172 25C36.2275 24.8742 36.5809 25.0007 36.9172 25C37.2535 24.9993 37.6063 24.8754 37.9172 25C38.228 25.1245 38.6794 25.7693 38.9172 26C39.1549 26.2307 39.7889 26.6984 39.9172 27C40.0455 27.3015 39.918 26.6738 39.9172 27C39.9164 27.3262 40.0469 27.699 39.9172 28C39.7874 28.301 39.156 28.7704 38.9172 29L34.9172 33L30.9172 29C30.6784 28.7703 31.0468 28.301 30.9172 28C30.7875 27.699 30.9179 27.3262 30.9172 27C30.9165 26.6738 30.7888 27.3015 30.9172 27C31.0456 26.6985 30.6793 26.2306 30.9172 26C31.155 25.7693 31.6063 25.1245 31.9172 25C32.228 24.8755 32.5809 24.9992 32.9172 25C33.2535 25.0007 33.6069 24.8741 33.9172 25C34.2274 25.1259 34.6804 25.7683 34.9172 26Z" fill="url(#paint1_linear_515_2323)"/>
</g>
<defs>
<linearGradient id="paint0_linear_515_2323" x1="0" y1="24" x2="48" y2="24" gradientUnits="userSpaceOnUse">
<stop stop-color="#0BA360"/>
<stop offset="1" stop-color="#3CBA92"/>
</linearGradient>
<linearGradient id="paint1_linear_515_2323" x1="21.832" y1="33.9721" x2="44.9172" y2="33.9721" gradientUnits="userSpaceOnUse">
<stop stop-color="#0BA360"/>
<stop offset="1" stop-color="#3CBA92"/>
</linearGradient>
<clipPath id="clip0_515_2323">
<rect width="24" height="24" fill="white" transform="translate(20.917 22)"/>
</clipPath>
</defs>
</svg>
