<svg width="65" height="66" viewBox="0 0 65 66" fill="none" xmlns="http://www.w3.org/2000/svg">
<circle r="23.5" transform="matrix(-0.485951 0.873986 -0.866488 -0.499198 32.4585 32.995)" stroke="url(#paint0_linear_515_2315)"/>
<g clip-path="url(#clip0_515_2315)">
<path d="M22.9168 31.0001H25.9168V43.0001H22.9168C22.6516 43.0001 22.1044 43.1892 21.9168 43.0001C21.7293 42.8111 21.9168 42.2675 21.9168 42.0001V32.0001C21.9168 31.7327 21.7293 31.1892 21.9168 31.0001C22.1044 30.8111 22.6516 31.0001 22.9168 31.0001ZM27.9168 30.0001L34.9168 23.0001C35.0019 22.9141 34.7967 23.0088 34.9168 23.0001C35.037 22.9914 34.8205 22.9273 34.9168 23.0001L35.9168 24.0001C36.1537 24.1794 36.8184 23.7184 36.9168 24.0001C37.0153 24.2818 36.99 24.7107 36.9168 25.0001L35.9168 30.0001H41.9168C42.4473 30.0001 42.5418 29.622 42.9168 30.0001C43.2919 30.3782 43.9168 31.4654 43.9168 32.0001V34.0001C43.9171 34.2636 44.0162 34.7564 43.9168 35.0001L40.9168 42.0001C40.8413 42.1848 40.0815 42.889 39.9168 43.0001C39.7522 43.1112 40.115 43.0002 39.9168 43.0001H28.9168C28.6516 43.0001 28.1044 43.1892 27.9168 43.0001C27.7293 42.8111 27.9168 42.2675 27.9168 42.0001V30.0001C27.7293 30.1891 27.9169 29.7328 27.9168 30.0001Z" fill="url(#paint1_linear_515_2315)"/>
</g>
<defs>
<linearGradient id="paint0_linear_515_2315" x1="0" y1="24" x2="48" y2="24" gradientUnits="userSpaceOnUse">
<stop stop-color="#0BA360"/>
<stop offset="1" stop-color="#3CBA92"/>
</linearGradient>
<linearGradient id="paint1_linear_515_2315" x1="21.8335" y1="33.0239" x2="43.961" y2="33.0239" gradientUnits="userSpaceOnUse">
<stop stop-color="#0BA360"/>
<stop offset="1" stop-color="#3CBA92"/>
</linearGradient>
<clipPath id="clip0_515_2315">
<rect width="24" height="24" fill="white" transform="translate(20.917 22.0001)"/>
</clipPath>
</defs>
</svg>
