<svg width="24" height="24" viewBox="0 0 24 24" fill="none" xmlns="http://www.w3.org/2000/svg">
<g clip-path="url(#clip0_9302_963)">
<path d="M19.8999 7.12626L12.0713 14.1373L4.09924 7.10352L3.85 6.88361V7.216V19V19.15H4H13.85V20.85H3C2.77457 20.85 2.55836 20.7604 2.39896 20.601C2.23955 20.4416 2.15 20.2254 2.15 20V4C2.15 3.77457 2.23955 3.55837 2.39896 3.39896C2.55837 3.23955 2.77457 3.15 3 3.15H21C21.2254 3.15 21.4416 3.23955 21.601 3.39896C21.7604 3.55836 21.85 3.77457 21.85 4V12.85H20.15V7.238V6.90231L19.8999 7.12626ZM4.511 4.85H4.1143L4.41175 5.11247L11.9618 11.7745L12.0617 11.8627L12.1611 11.7738L19.6021 5.11175L19.8944 4.85H19.502H4.511ZM20.85 18V18.15H21H23.85V19.85H21H20.85V20V22.85H19.15V20V19.85H19H16.15V18.15H19H19.15V18V15.15H20.85V18Z" fill="white" stroke="url(#paint0_linear_9302_963)" stroke-width="0.3"/>
</g>
<defs>
<linearGradient id="paint0_linear_9302_963" x1="13" y1="3" x2="13" y2="23" gradientUnits="userSpaceOnUse">
<stop stop-color="#8639B5"/>
<stop offset="1" stop-color="#092056"/>
</linearGradient>
<clipPath id="clip0_9302_963">
<rect width="24" height="24" fill="white"/>
</clipPath>
</defs>
</svg>
