<svg width="24" height="24" viewBox="0 0 24 24" fill="none" xmlns="http://www.w3.org/2000/svg">
<g clip-path="url(#clip0_416_1955)">
<path d="M16.85 3V3.15H17H21C21.2254 3.15 21.4416 3.23955 21.601 3.39896C21.7604 3.55837 21.85 3.77457 21.85 4V20C21.85 20.2254 21.7604 20.4416 21.601 20.601C21.4416 20.7604 21.2254 20.85 21 20.85H3C2.77457 20.85 2.55836 20.7604 2.39896 20.601C2.23955 20.4416 2.15 20.2254 2.15 20V4C2.15 3.77457 2.23955 3.55837 2.39896 3.39896C2.55837 3.23955 2.77457 3.15 3 3.15H7H7.15V3V1.15H8.85V3V3.15H9H15H15.15V3V1.15H16.85V3ZM15.15 5V4.85H15H9H8.85V5V6.85H7.15V5V4.85H7H4H3.85V5V9V9.15H4H20H20.15V9V5V4.85H20H17H16.85V5V6.85H15.15V5ZM20.15 11V10.85H20H4H3.85V11V19V19.15H4H20H20.15V19V11Z" fill="white" stroke="url(#paint0_linear_416_1955)" stroke-width="0.3"/>
</g>
<defs>
<linearGradient id="paint0_linear_416_1955" x1="12" y1="1" x2="12" y2="21" gradientUnits="userSpaceOnUse">
<stop stop-color="#8639B5"/>
<stop offset="1" stop-color="#092056"/>
</linearGradient>
<clipPath id="clip0_416_1955">
<rect width="24" height="24" fill="white"/>
</clipPath>
</defs>
</svg>
