<svg width="14" height="16" viewBox="0 0 14 16" fill="none" xmlns="http://www.w3.org/2000/svg">
<path d="M3.15 6.60001V6.50001V5.75006V5.75001H3.25C3.24955 4.90495 3.53454 4.08451 4.05877 3.42171C4.583 2.75891 5.31572 2.2926 6.13816 2.09839C6.9606 1.90418 7.82452 1.99344 8.58987 2.35172C9.35485 2.70982 9.97651 3.31568 10.3542 4.07115L3.15 6.60001ZM3.15 6.60001H3.25H13C13.1724 6.60001 13.3377 6.66849 13.4596 6.79039C13.5815 6.91229 13.65 7.07762 13.65 7.25001V14.75C13.65 14.9224 13.5815 15.0877 13.4596 15.2096C13.3377 15.3315 13.1724 15.4 13 15.4H1C0.827609 15.4 0.662279 15.3315 0.540381 15.2096C0.418482 15.0877 0.35 14.9224 0.35 14.75V7.25001C0.35 7.07762 0.418482 6.91229 0.540381 6.79039C0.662279 6.66849 0.827609 6.60001 1 6.60001H1.75H1.85V6.50001V5.75001V5.74997C1.84958 4.58953 2.24109 3.46296 2.96107 2.55288C3.68105 1.64279 4.68728 1.00254 5.81668 0.735903C6.94607 0.469267 8.13241 0.591877 9.1834 1.08386C10.2042 1.5617 11.0391 2.36077 11.5615 3.35743M3.15 6.60001L11.5615 3.35743M11.5615 3.35743L10.3984 3.93868C10.0072 3.20391 9.3878 2.61483 8.63227 2.26115L11.5615 3.35743ZM1.75 7.90001H1.65V8.00001V14V14.1H1.75H12.25H12.35V14V8.00001V7.90001H12.25H1.75ZM5.6 10.35H8.4V11.65H5.6V10.35Z" fill="black" stroke="white" stroke-width="0.2"/>
</svg>
