<svg width="16" height="16" viewBox="0 0 16 16" fill="none" xmlns="http://www.w3.org/2000/svg">
<path d="M11.65 3.5V3.6H11.75H15.4V4.9H14H13.9V5V14.75C13.9 14.9224 13.8315 15.0877 13.7096 15.2096C13.5877 15.3315 13.4224 15.4 13.25 15.4H2.75C2.57761 15.4 2.41228 15.3315 2.29038 15.2096C2.16848 15.0877 2.1 14.9224 2.1 14.75V5V4.9H2H0.6V3.6H4.25H4.35V3.5V1.25C4.35 1.07761 4.41848 0.912279 4.54038 0.790381C4.66228 0.668482 4.82761 0.6 5 0.6H11C11.1724 0.6 11.3377 0.668482 11.4596 0.790381C11.5815 0.912279 11.65 1.07761 11.65 1.25V3.5ZM12.6 5V4.9H12.5H3.5H3.4V5V14V14.1H3.5H12.5H12.6V14V5ZM5.75 1.9H5.65V2V3.5V3.6H5.75H10.25H10.35V3.5V2V1.9H10.25H5.75Z" fill="black" stroke="white" stroke-width="0.2"/>
</svg>
