<svg width="15" height="16" viewBox="0 0 15 16" fill="none" xmlns="http://www.w3.org/2000/svg">
<path d="M4.4 2V3.4H3.1V1.25C3.1 1.07761 3.16848 0.912279 3.29038 0.790381C3.41228 0.668482 3.57761 0.6 3.75 0.6H14.25C14.4224 0.6 14.5877 0.668482 14.7096 0.790381C14.8315 0.912279 14.9 1.07761 14.9 1.25V14.75C14.9 14.9224 14.8315 15.0877 14.7096 15.2096C14.5877 15.3315 14.4224 15.4 14.25 15.4H3.75C3.57761 15.4 3.41228 15.3315 3.29038 15.2096C3.16848 15.0877 3.1 14.9224 3.1 14.75V12.6H4.4V14V14.1H4.5H13.5H13.6V14V2V1.9H13.5H4.5H4.4V2ZM4.4 7.25V7.35H4.5H9.65V8.65H4.5H4.4V8.75V10.7919L0.910078 8L4.4 5.20806V7.25Z" fill="black" stroke="white" stroke-width="0.2"/>
</svg>
