<svg width="14" height="14" viewBox="0 0 14 14" fill="none" xmlns="http://www.w3.org/2000/svg">
<path d="M9.86671 5.33521L9.93742 5.2645L9.86671 5.19379L8.80621 4.13329L8.7355 4.06258L8.66479 4.13329L1.67929 11.1188L1.65 11.1481V11.1895V12.25V12.35H1.75H2.8105H2.85192L2.88121 12.3207L9.86671 5.33521ZM10.7858 4.27471L10.8565 4.34542L10.9272 4.27471L11.9877 3.21421L12.0584 3.1435L11.9877 3.07279L10.9272 2.01229L10.8565 1.94158L10.7858 2.01229L9.72529 3.07279L9.65458 3.1435L9.72529 3.21421L10.7858 4.27471ZM13.4378 3.60305L3.39083 13.65H0.35V10.6092L10.3969 0.562223C10.5188 0.440367 10.6841 0.371912 10.8565 0.371912C11.0289 0.371912 11.1942 0.440367 11.3161 0.562223L13.4378 2.68395C13.4378 2.68396 13.4378 2.68396 13.4378 2.68396C13.5596 2.80585 13.6281 2.97115 13.6281 3.1435C13.6281 3.31585 13.5596 3.48115 13.4378 3.60304C13.4378 3.60304 13.4378 3.60305 13.4378 3.60305Z" fill="black" stroke="white" stroke-width="0.2"/>
</svg>
