<svg width="12" height="17" viewBox="0 0 12 17" fill="none" xmlns="http://www.w3.org/2000/svg">
<path d="M0.100846 16.4C0.126728 14.8714 0.745197 13.4109 1.82807 12.3281C2.93453 11.2216 4.43522 10.6 6 10.6C7.56478 10.6 9.06547 11.2216 10.1719 12.3281C11.2548 13.4109 11.8733 14.8714 11.8992 16.4H10.5989C10.5732 15.2162 10.0918 14.0864 9.25269 13.2473C8.39002 12.3846 7.22 11.9 6 11.9C4.78 11.9 3.60998 12.3846 2.74731 13.2473C1.90824 14.0864 1.4268 15.2162 1.40109 16.4H0.100846ZM6 9.65C3.56898 9.65 1.6 7.68102 1.6 5.25C1.6 2.81898 3.56898 0.85 6 0.85C8.43102 0.85 10.4 2.81898 10.4 5.25C10.4 7.68102 8.43102 9.65 6 9.65ZM6 8.35C7.71273 8.35 9.1 6.96273 9.1 5.25C9.1 3.53727 7.71273 2.15 6 2.15C4.28727 2.15 2.9 3.53727 2.9 5.25C2.9 6.96273 4.28727 8.35 6 8.35Z" fill="black" stroke="white" stroke-width="0.2"/>
</svg>
