<svg width="14" height="17" viewBox="0 0 14 17" fill="none" xmlns="http://www.w3.org/2000/svg">
<path d="M2.5 6.1H2.6V6V5.25C2.6 4.08305 3.06357 2.96389 3.88873 2.13873C4.71389 1.31357 5.83305 0.85 7 0.85C8.16695 0.85 9.28611 1.31357 10.1113 2.13873C10.9364 2.96389 11.4 4.08305 11.4 5.25V6V6.1H11.5H13C13.1724 6.1 13.3377 6.16848 13.4596 6.29038C13.5815 6.41228 13.65 6.57761 13.65 6.75V15.75C13.65 15.9224 13.5815 16.0877 13.4596 16.2096C13.3377 16.3315 13.1724 16.4 13 16.4H1C0.827609 16.4 0.662279 16.3315 0.540381 16.2096C0.418482 16.0877 0.35 15.9224 0.35 15.75V6.75C0.35 6.57761 0.418482 6.41228 0.540381 6.29038C0.662279 6.16848 0.827609 6.1 1 6.1H2.5ZM12.35 7.5V7.4H12.25H1.75H1.65V7.5V15V15.1H1.75H12.25H12.35V15V7.5ZM6.35 11.799V11.7413L6.3 11.7124C6.0331 11.5583 5.82451 11.3204 5.70657 11.0357C5.58863 10.751 5.56794 10.4353 5.6477 10.1376C5.72747 9.83993 5.90323 9.57688 6.14773 9.38927C6.39224 9.20165 6.69181 9.09996 7 9.09996C7.30819 9.09996 7.60776 9.20165 7.85227 9.38927C8.09677 9.57688 8.27253 9.83993 8.3523 10.1376C8.43206 10.4353 8.41137 10.751 8.29343 11.0357C8.17549 11.3204 7.9669 11.5583 7.7 11.7124L7.65 11.7413V11.799V13.4H6.35V11.799ZM3.9 6V6.1H4H10H10.1V6V5.25C10.1 4.42783 9.77339 3.63933 9.19203 3.05797C8.61067 2.47661 7.82217 2.15 7 2.15C6.17783 2.15 5.38933 2.47661 4.80797 3.05797C4.22661 3.63933 3.9 4.42783 3.9 5.25V6Z" fill="black" stroke="white" stroke-width="0.2"/>
</svg>
